<?xml version="1.0" encoding="UTF-8"?>
<svg id="Layer_2" data-name="Layer 2" xmlns="http://www.w3.org/2000/svg" viewBox="0 0 478 181">
  <defs>
    <style>
      .cls-1 {
        fill: #cda349;
      }

      .cls-1, .cls-2 {
        stroke-width: 0px;
      }

      .cls-3 {
        stroke-width: 1.12px;
      }

      .cls-3, .cls-4, .cls-5, .cls-6, .cls-7, .cls-8, .cls-9 {
        stroke-miterlimit: 10;
      }

      .cls-3, .cls-4, .cls-5, .cls-7, .cls-8, .cls-9 {
        stroke: #fff;
      }

      .cls-3, .cls-4, .cls-9 {
        fill: #fff;
      }

      .cls-4, .cls-8 {
        stroke-width: 1.1px;
      }

      .cls-5 {
        stroke-width: 1.03px;
      }

      .cls-5, .cls-6, .cls-2, .cls-7, .cls-8 {
        fill: none;
      }

      .cls-6 {
        stroke: #cda349;
        stroke-width: 12px;
      }

      .cls-7 {
        stroke-width: 2px;
      }
    </style>
  </defs>
  <g id="Layer_1-2" data-name="Layer 1">
    <g>
      <path class="cls-7" d="M245.65,122.71h-13.65v.14"/>
      <path class="cls-2" d="M259,91c0,3.93-1.11,7.59-3.02,10.71-3.6,5.87-10.09,9.79-17.48,9.79-11.32,0-20.5-9.18-20.5-20.5,0-10.23,7.5-18.71,17.3-20.25,1.04-.16,2.11-.25,3.2-.25,11.32,0,20.5,9.18,20.5,20.5Z"/>
      <path class="cls-5" d="M232,122.71v.14s3,44.91,3,44.91h7l4-45.05h-14Z"/>
      <path class="cls-8" d="M206.93,94.7l-.73-.15"/>
      <g>
        <circle class="cls-6" cx="238" cy="90.5" r="84.5"/>
        <path class="cls-1" d="M262.87,69.5c-5.95-6.75-14.66-11-24.37-11s-18.42,4.25-24.37,11h-57.63v23.53l53.2,13.04c2.81,5.37,7.09,9.86,12.3,12.93h-.5l6,53h23l6-53h-1.5c6-3.54,10.76-8.95,13.48-15.44l49.52-12.06v-22h-55.13ZM206.2,94.55l-47.9-10.08v-6.41h50.38c-1.72,3.96-2.68,8.34-2.68,12.94,0,1.2.06,2.39.2,3.55ZM241.36,167h-5.5l-2.35-42.87v-.13s10.99,0,10.99,0l-3.14,43ZM238.5,111.5c-11.32,0-20.5-9.18-20.5-20.5s9.18-20.5,20.5-20.5,20.5,9.18,20.5,20.5-9.18,20.5-20.5,20.5ZM316.31,83.5l-45.37,9.47c.04-.65.06-1.31.06-1.97,0-4.54-.93-8.85-2.61-12.77v-.73h47.92v6Z"/>
      </g>
      <line class="cls-4" x1="333.45" y1="48.32" x2="333.44" y2="48.32"/>
      <line class="cls-4" x1="333.45" y1="48.32" x2="333.44" y2="48.32"/>
      <path class="cls-3" d="M356,39.51c.12-.01.23-.01.35-.01h1.73"/>
      <path class="cls-9" d="M340.11,120.93c-.26.96-.54,1.9-.84,2.84"/>
      <path class="cls-9" d="M341.04,117.21c-.17.77-.36,1.53-.55,2.29"/>
      <path class="cls-9" d="M342.78,105.38c-.05.71-.11,1.42-.18,2.13"/>
      <path class="cls-1" d="M478,39.5v1.82c0,8.39-6.79,15.18-15.18,15.18h-104.74c-.76,0-1.47-.21-2.08-.58v13.58h96v2.38c0,8.63-6.99,15.62-15.62,15.62h-80.38v13h70v4.74c0,7.87-6.39,14.26-14.26,14.26h-56.98c-1.6,9.2-5.78,17.52-11.76,24.19-6.76,7.54-15.82,12.98-26.08,15.2.35-.33.7-.65,1.05-.99.29-.27.57-.54.85-.82.14-.13.27-.27.41-.4.61-.61,1.21-1.22,1.79-1.85.33-.35.66-.7.98-1.06.33-.36.65-.72.96-1.08.44-.49.86-.99,1.27-1.49.32-.37.63-.74.93-1.12,1.7-2.11,3.3-4.31,4.78-6.59.27-.4.53-.81.78-1.22.25-.38.49-.78.72-1.17.52-.85,1.01-1.71,1.49-2.57.19-.33.37-.66.54-.99.36-.67.71-1.34,1.04-2.02.36-.68.69-1.38,1.01-2.08.04-.09.08-.17.12-.26.18-.38.35-.77.53-1.16.39-.89.77-1.8,1.13-2.71.19-.45.36-.91.53-1.37.36-.93.69-1.87,1.01-2.83.15-.44.3-.89.43-1.34.31-.94.59-1.89.84-2.84.14-.47.26-.95.38-1.43.2-.76.38-1.52.55-2.29.14-.6.27-1.2.38-1.81.39-1.91.71-3.85.95-5.81.07-.56.13-1.12.2-1.68.01-.14.02-.27.03-.4.08-.71.14-1.42.18-2.13.06-.77.1-1.54.13-2.31.02-.09.02-.19.01-.28.04-.68.06-1.36.06-2.04.01-.08.01-.16.01-.25.01-.33.01-.66.01-1v-46.65c0-7.25,5.79-13.16,13-13.34v.57c.61-.37,1.32-.58,2.08-.58h119.92Z"/>
      <path class="cls-1" d="M0,39.5v1.82c0,8.39,6.79,15.18,15.18,15.18h104.74c.76,0,1.47-.21,2.08-.58v13.58H26s0,2.38,0,2.38c0,8.63,6.99,15.62,15.62,15.62h80.38v13H52s0,4.74,0,4.74c0,7.87,6.39,14.26,14.26,14.26h56.98c1.6,9.2,5.78,17.52,11.76,24.19,6.76,7.54,15.82,12.98,26.08,15.2-.35-.33-.7-.65-1.05-.99-.29-.27-.57-.54-.85-.82-.14-.13-.27-.27-.41-.4-.61-.61-1.21-1.22-1.79-1.85-.33-.35-.66-.7-.98-1.06-.33-.36-.65-.72-.96-1.08-.44-.49-.86-.99-1.27-1.49-.32-.37-.63-.74-.93-1.12-1.7-2.11-3.3-4.31-4.78-6.59-.27-.4-.53-.81-.78-1.22-.25-.38-.49-.78-.72-1.17-.52-.85-1.01-1.71-1.49-2.57-.19-.33-.37-.66-.54-.99-.36-.67-.71-1.34-1.04-2.02-.36-.68-.69-1.38-1.01-2.08-.04-.09-.08-.17-.12-.26-.18-.38-.35-.77-.53-1.16-.39-.89-.77-1.8-1.13-2.71-.19-.45-.36-.91-.53-1.37-.36-.93-.69-1.87-1.01-2.83-.15-.44-.3-.89-.43-1.34-.31-.94-.59-1.89-.84-2.84-.14-.47-.26-.95-.38-1.43-.2-.76-.38-1.52-.55-2.29-.14-.6-.27-1.2-.38-1.81-.39-1.91-.71-3.85-.95-5.81-.07-.56-.13-1.12-.2-1.68-.01-.14-.02-.27-.03-.4-.08-.71-.14-1.42-.18-2.13-.06-.77-.1-1.54-.13-2.31-.02-.09-.02-.19-.01-.28-.04-.68-.06-1.36-.06-2.04-.01-.08-.01-.16-.01-.25-.01-.33-.01-.66-.01-1v-46.65c0-7.25-5.79-13.16-13-13.34v.57c-.61-.37-1.32-.58-2.08-.58H0Z"/>
    </g>
  </g>
</svg>